<mxfile host="app.diagrams.net" modified="2024-03-09T09:58:12.666Z" agent="Mozilla/5.0 (Windows NT 10.0; Win64; x64) AppleWebKit/537.36 (KHTML, like Gecko) Chrome/122.0.0.0 Safari/537.36 Edg/122.0.0.0" etag="pVLyUbh_jeGdXWuC6EaL" version="24.0.3" type="google">
  <diagram name="Page-1" id="7QeFLaqvq5ENU4r91Td4">
    <mxGraphModel grid="0" page="1" gridSize="10" guides="1" tooltips="1" connect="1" arrows="1" fold="1" pageScale="1" pageWidth="827" pageHeight="1169" background="none" math="1" shadow="0">
      <root>
        <mxCell id="0" />
        <mxCell id="1" parent="0" />
        <mxCell id="_eOqXtn0xgRWh_iTf6pw-2" style="edgeStyle=orthogonalEdgeStyle;rounded=0;orthogonalLoop=1;jettySize=auto;html=1;exitX=0.5;exitY=1;exitDx=0;exitDy=0;" edge="1" parent="1">
          <mxGeometry relative="1" as="geometry">
            <mxPoint x="440" y="200" as="sourcePoint" />
            <mxPoint x="440" y="200" as="targetPoint" />
          </mxGeometry>
        </mxCell>
        <mxCell id="_eOqXtn0xgRWh_iTf6pw-33" style="edgeStyle=orthogonalEdgeStyle;rounded=0;orthogonalLoop=1;jettySize=auto;html=1;exitX=1;exitY=0.5;exitDx=0;exitDy=0;" edge="1" parent="1" source="_eOqXtn0xgRWh_iTf6pw-4">
          <mxGeometry relative="1" as="geometry">
            <mxPoint x="680" y="110.33333333333337" as="targetPoint" />
          </mxGeometry>
        </mxCell>
        <mxCell id="_eOqXtn0xgRWh_iTf6pw-34" style="edgeStyle=orthogonalEdgeStyle;rounded=0;orthogonalLoop=1;jettySize=auto;html=1;exitX=1;exitY=0.5;exitDx=0;exitDy=0;entryX=0.5;entryY=0;entryDx=0;entryDy=0;" edge="1" parent="1" source="_eOqXtn0xgRWh_iTf6pw-4" target="_eOqXtn0xgRWh_iTf6pw-32">
          <mxGeometry relative="1" as="geometry" />
        </mxCell>
        <mxCell id="_eOqXtn0xgRWh_iTf6pw-82" value="$$\theta_s$$" style="edgeLabel;html=1;align=center;verticalAlign=middle;resizable=0;points=[];fontSize=14;" vertex="1" connectable="0" parent="_eOqXtn0xgRWh_iTf6pw-34">
          <mxGeometry x="-0.4869" relative="1" as="geometry">
            <mxPoint as="offset" />
          </mxGeometry>
        </mxCell>
        <mxCell id="_eOqXtn0xgRWh_iTf6pw-4" value="$$\int$$" style="rounded=0;whiteSpace=wrap;html=1;fontSize=14;" vertex="1" parent="1">
          <mxGeometry x="360" y="80" width="120" height="60" as="geometry" />
        </mxCell>
        <mxCell id="_eOqXtn0xgRWh_iTf6pw-9" style="edgeStyle=orthogonalEdgeStyle;rounded=0;orthogonalLoop=1;jettySize=auto;html=1;exitX=1;exitY=0.5;exitDx=0;exitDy=0;" edge="1" parent="1" source="_eOqXtn0xgRWh_iTf6pw-5">
          <mxGeometry relative="1" as="geometry">
            <mxPoint x="680" y="270" as="targetPoint" />
          </mxGeometry>
        </mxCell>
        <mxCell id="_eOqXtn0xgRWh_iTf6pw-14" style="edgeStyle=orthogonalEdgeStyle;rounded=0;orthogonalLoop=1;jettySize=auto;html=1;exitX=1;exitY=0.5;exitDx=0;exitDy=0;entryX=0.5;entryY=1;entryDx=0;entryDy=0;" edge="1" parent="1" target="_eOqXtn0xgRWh_iTf6pw-13">
          <mxGeometry relative="1" as="geometry">
            <mxPoint x="470" y="270" as="sourcePoint" />
            <Array as="points">
              <mxPoint x="560" y="270" />
              <mxPoint x="560" y="190" />
              <mxPoint x="260" y="190" />
            </Array>
          </mxGeometry>
        </mxCell>
        <mxCell id="_eOqXtn0xgRWh_iTf6pw-22" value="$$\Omega_r$$" style="edgeLabel;html=1;align=center;verticalAlign=middle;resizable=0;points=[];fontSize=14;" vertex="1" connectable="0" parent="_eOqXtn0xgRWh_iTf6pw-14">
          <mxGeometry x="-0.785" y="1" relative="1" as="geometry">
            <mxPoint x="-5" y="1" as="offset" />
          </mxGeometry>
        </mxCell>
        <mxCell id="_eOqXtn0xgRWh_iTf6pw-5" value="$$\int$$" style="rounded=0;whiteSpace=wrap;html=1;fontSize=14;" vertex="1" parent="1">
          <mxGeometry x="360" y="240" width="120" height="60" as="geometry" />
        </mxCell>
        <mxCell id="_eOqXtn0xgRWh_iTf6pw-10" style="edgeStyle=orthogonalEdgeStyle;rounded=0;orthogonalLoop=1;jettySize=auto;html=1;exitX=1;exitY=0.5;exitDx=0;exitDy=0;" edge="1" parent="1" source="_eOqXtn0xgRWh_iTf6pw-6">
          <mxGeometry relative="1" as="geometry">
            <mxPoint x="680" y="431" as="targetPoint" />
          </mxGeometry>
        </mxCell>
        <mxCell id="_eOqXtn0xgRWh_iTf6pw-15" style="edgeStyle=orthogonalEdgeStyle;rounded=0;orthogonalLoop=1;jettySize=auto;html=1;exitX=1;exitY=0.5;exitDx=0;exitDy=0;entryX=0;entryY=0.5;entryDx=0;entryDy=0;" edge="1" parent="1">
          <mxGeometry relative="1" as="geometry">
            <mxPoint x="470" y="431" as="sourcePoint" />
            <mxPoint x="240" y="111" as="targetPoint" />
            <Array as="points">
              <mxPoint x="560" y="431" />
              <mxPoint x="560" y="548" />
              <mxPoint x="140" y="548" />
              <mxPoint x="140" y="111" />
            </Array>
          </mxGeometry>
        </mxCell>
        <mxCell id="_eOqXtn0xgRWh_iTf6pw-23" value="$$\Omega_g$$" style="edgeLabel;html=1;align=center;verticalAlign=middle;resizable=0;points=[];fontSize=14;" vertex="1" connectable="0" parent="_eOqXtn0xgRWh_iTf6pw-15">
          <mxGeometry x="-0.8835" relative="1" as="geometry">
            <mxPoint x="-6" as="offset" />
          </mxGeometry>
        </mxCell>
        <mxCell id="_eOqXtn0xgRWh_iTf6pw-6" value="$$\int$$" style="rounded=0;whiteSpace=wrap;html=1;fontSize=14;" vertex="1" parent="1">
          <mxGeometry x="360" y="401" width="120" height="60" as="geometry" />
        </mxCell>
        <mxCell id="_eOqXtn0xgRWh_iTf6pw-16" style="edgeStyle=orthogonalEdgeStyle;rounded=0;orthogonalLoop=1;jettySize=auto;html=1;exitX=1;exitY=0.5;exitDx=0;exitDy=0;entryX=0;entryY=0.5;entryDx=0;entryDy=0;" edge="1" parent="1" source="_eOqXtn0xgRWh_iTf6pw-13" target="_eOqXtn0xgRWh_iTf6pw-4">
          <mxGeometry relative="1" as="geometry" />
        </mxCell>
        <mxCell id="_eOqXtn0xgRWh_iTf6pw-13" value="" style="ellipse;whiteSpace=wrap;html=1;aspect=fixed;" vertex="1" parent="1">
          <mxGeometry x="240" y="90" width="40" height="40" as="geometry" />
        </mxCell>
        <mxCell id="_eOqXtn0xgRWh_iTf6pw-21" style="edgeStyle=orthogonalEdgeStyle;rounded=0;orthogonalLoop=1;jettySize=auto;html=1;entryX=0;entryY=0.5;entryDx=0;entryDy=0;" edge="1" parent="1" target="_eOqXtn0xgRWh_iTf6pw-5">
          <mxGeometry relative="1" as="geometry">
            <mxPoint x="280" y="270" as="sourcePoint" />
          </mxGeometry>
        </mxCell>
        <mxCell id="_eOqXtn0xgRWh_iTf6pw-24" value="$$\dot\Omega_r$$" style="edgeLabel;html=1;align=center;verticalAlign=middle;resizable=0;points=[];fontSize=14;" vertex="1" connectable="0" parent="_eOqXtn0xgRWh_iTf6pw-21">
          <mxGeometry x="-0.0889" y="1" relative="1" as="geometry">
            <mxPoint as="offset" />
          </mxGeometry>
        </mxCell>
        <mxCell id="_eOqXtn0xgRWh_iTf6pw-20" style="edgeStyle=orthogonalEdgeStyle;rounded=0;orthogonalLoop=1;jettySize=auto;html=1;exitX=1;exitY=0.5;exitDx=0;exitDy=0;entryX=0;entryY=0.5;entryDx=0;entryDy=0;" edge="1" parent="1" target="_eOqXtn0xgRWh_iTf6pw-6">
          <mxGeometry relative="1" as="geometry">
            <mxPoint x="280" y="431" as="sourcePoint" />
          </mxGeometry>
        </mxCell>
        <mxCell id="_eOqXtn0xgRWh_iTf6pw-25" value="$$\dot\Omega_g$$" style="edgeLabel;html=1;align=center;verticalAlign=middle;resizable=0;points=[];fontSize=14;" vertex="1" connectable="0" parent="_eOqXtn0xgRWh_iTf6pw-20">
          <mxGeometry x="-0.0333" y="1" relative="1" as="geometry">
            <mxPoint as="offset" />
          </mxGeometry>
        </mxCell>
        <mxCell id="_eOqXtn0xgRWh_iTf6pw-26" value="$$\frac{1}{J_r}$$" style="rounded=1;whiteSpace=wrap;html=1;fontSize=14;" vertex="1" parent="1">
          <mxGeometry x="240" y="245" width="40" height="50" as="geometry" />
        </mxCell>
        <mxCell id="_eOqXtn0xgRWh_iTf6pw-27" value="$$\frac{1}{J_g}$$" style="rounded=1;whiteSpace=wrap;html=1;fontSize=14;" vertex="1" parent="1">
          <mxGeometry x="240" y="406.5" width="40" height="49" as="geometry" />
        </mxCell>
        <mxCell id="_eOqXtn0xgRWh_iTf6pw-31" style="edgeStyle=orthogonalEdgeStyle;rounded=0;orthogonalLoop=1;jettySize=auto;html=1;exitX=1;exitY=0.5;exitDx=0;exitDy=0;entryX=0;entryY=0.5;entryDx=0;entryDy=0;" edge="1" parent="1" source="_eOqXtn0xgRWh_iTf6pw-28" target="_eOqXtn0xgRWh_iTf6pw-26">
          <mxGeometry relative="1" as="geometry" />
        </mxCell>
        <mxCell id="_eOqXtn0xgRWh_iTf6pw-28" value="" style="ellipse;whiteSpace=wrap;html=1;aspect=fixed;" vertex="1" parent="1">
          <mxGeometry x="180" y="250" width="40" height="40" as="geometry" />
        </mxCell>
        <mxCell id="_eOqXtn0xgRWh_iTf6pw-30" style="edgeStyle=orthogonalEdgeStyle;rounded=0;orthogonalLoop=1;jettySize=auto;html=1;exitX=1;exitY=0.5;exitDx=0;exitDy=0;entryX=0;entryY=0.5;entryDx=0;entryDy=0;" edge="1" parent="1" source="_eOqXtn0xgRWh_iTf6pw-29" target="_eOqXtn0xgRWh_iTf6pw-27">
          <mxGeometry relative="1" as="geometry" />
        </mxCell>
        <mxCell id="_eOqXtn0xgRWh_iTf6pw-89" style="edgeStyle=orthogonalEdgeStyle;rounded=0;orthogonalLoop=1;jettySize=auto;html=1;exitX=0;exitY=0.5;exitDx=0;exitDy=0;entryX=1;entryY=1;entryDx=0;entryDy=0;" edge="1" parent="1" source="_eOqXtn0xgRWh_iTf6pw-87" target="_eOqXtn0xgRWh_iTf6pw-29">
          <mxGeometry relative="1" as="geometry">
            <Array as="points">
              <mxPoint x="214" y="509" />
            </Array>
          </mxGeometry>
        </mxCell>
        <mxCell id="_eOqXtn0xgRWh_iTf6pw-29" value="" style="ellipse;whiteSpace=wrap;html=1;aspect=fixed;" vertex="1" parent="1">
          <mxGeometry x="180" y="411" width="40" height="40" as="geometry" />
        </mxCell>
        <mxCell id="_eOqXtn0xgRWh_iTf6pw-35" style="edgeStyle=orthogonalEdgeStyle;rounded=0;orthogonalLoop=1;jettySize=auto;html=1;exitX=0;exitY=0.5;exitDx=0;exitDy=0;entryX=0.5;entryY=0;entryDx=0;entryDy=0;" edge="1" parent="1" source="_eOqXtn0xgRWh_iTf6pw-32" target="_eOqXtn0xgRWh_iTf6pw-28">
          <mxGeometry relative="1" as="geometry" />
        </mxCell>
        <mxCell id="_eOqXtn0xgRWh_iTf6pw-61" style="edgeStyle=orthogonalEdgeStyle;rounded=0;orthogonalLoop=1;jettySize=auto;html=1;exitX=0;exitY=0.5;exitDx=0;exitDy=0;entryX=0.5;entryY=1;entryDx=0;entryDy=0;" edge="1" parent="1" source="_eOqXtn0xgRWh_iTf6pw-32" target="_eOqXtn0xgRWh_iTf6pw-29">
          <mxGeometry relative="1" as="geometry">
            <Array as="points">
              <mxPoint x="160" y="155" />
              <mxPoint x="160" y="471" />
              <mxPoint x="200" y="471" />
            </Array>
          </mxGeometry>
        </mxCell>
        <mxCell id="_eOqXtn0xgRWh_iTf6pw-32" value="$$k_s$$" style="rounded=1;whiteSpace=wrap;html=1;fontSize=14;" vertex="1" parent="1">
          <mxGeometry x="530" y="140" width="30" height="30" as="geometry" />
        </mxCell>
        <mxCell id="_eOqXtn0xgRWh_iTf6pw-37" value="+" style="text;strokeColor=none;align=center;fillColor=none;html=1;verticalAlign=middle;whiteSpace=wrap;rounded=0;" vertex="1" parent="1">
          <mxGeometry x="195" y="440" width="10" height="10" as="geometry" />
        </mxCell>
        <mxCell id="_eOqXtn0xgRWh_iTf6pw-38" value="-" style="text;strokeColor=none;align=center;fillColor=none;html=1;verticalAlign=middle;whiteSpace=wrap;rounded=0;" vertex="1" parent="1">
          <mxGeometry x="195" y="250" width="10" height="10" as="geometry" />
        </mxCell>
        <mxCell id="_eOqXtn0xgRWh_iTf6pw-39" value="-" style="text;strokeColor=none;align=center;fillColor=none;html=1;verticalAlign=middle;whiteSpace=wrap;rounded=0;" vertex="1" parent="1">
          <mxGeometry x="240" y="105" width="10" height="10" as="geometry" />
        </mxCell>
        <mxCell id="_eOqXtn0xgRWh_iTf6pw-40" value="+" style="text;strokeColor=none;align=center;fillColor=none;html=1;verticalAlign=middle;whiteSpace=wrap;rounded=0;" vertex="1" parent="1">
          <mxGeometry x="255" y="118" width="10" height="10" as="geometry" />
        </mxCell>
        <mxCell id="_eOqXtn0xgRWh_iTf6pw-41" value="" style="endArrow=classic;html=1;rounded=0;entryX=0;entryY=0.5;entryDx=0;entryDy=0;" edge="1" parent="1" target="_eOqXtn0xgRWh_iTf6pw-28">
          <mxGeometry width="50" height="50" relative="1" as="geometry">
            <mxPoint x="30" y="270" as="sourcePoint" />
            <mxPoint x="90" y="270" as="targetPoint" />
          </mxGeometry>
        </mxCell>
        <mxCell id="_eOqXtn0xgRWh_iTf6pw-43" value="$$\tau_r$$" style="edgeLabel;html=1;align=center;verticalAlign=middle;resizable=0;points=[];fontSize=14;" vertex="1" connectable="0" parent="_eOqXtn0xgRWh_iTf6pw-41">
          <mxGeometry x="-0.7143" relative="1" as="geometry">
            <mxPoint x="48" as="offset" />
          </mxGeometry>
        </mxCell>
        <mxCell id="_eOqXtn0xgRWh_iTf6pw-45" value="+" style="text;strokeColor=none;align=center;fillColor=none;html=1;verticalAlign=middle;whiteSpace=wrap;rounded=0;" vertex="1" parent="1">
          <mxGeometry x="180" y="265" width="10" height="10" as="geometry" />
        </mxCell>
        <mxCell id="_eOqXtn0xgRWh_iTf6pw-77" style="edgeStyle=orthogonalEdgeStyle;rounded=0;orthogonalLoop=1;jettySize=auto;html=1;exitX=0;exitY=0.5;exitDx=0;exitDy=0;entryX=0.5;entryY=1;entryDx=0;entryDy=0;" edge="1" parent="1" source="_eOqXtn0xgRWh_iTf6pw-63" target="_eOqXtn0xgRWh_iTf6pw-28">
          <mxGeometry relative="1" as="geometry" />
        </mxCell>
        <mxCell id="_eOqXtn0xgRWh_iTf6pw-63" value="$$b_s$$" style="rounded=1;whiteSpace=wrap;html=1;fontSize=14;" vertex="1" parent="1">
          <mxGeometry x="470" y="310" width="30" height="30" as="geometry" />
        </mxCell>
        <mxCell id="_eOqXtn0xgRWh_iTf6pw-68" style="edgeStyle=orthogonalEdgeStyle;rounded=0;orthogonalLoop=1;jettySize=auto;html=1;entryX=1;entryY=1;entryDx=0;entryDy=0;" edge="1" parent="1">
          <mxGeometry relative="1" as="geometry">
            <mxPoint x="565.6066017177982" y="385.6066017177982" as="targetPoint" />
            <mxPoint x="590" y="430" as="sourcePoint" />
            <Array as="points">
              <mxPoint x="590" y="386" />
              <mxPoint x="566" y="386" />
            </Array>
          </mxGeometry>
        </mxCell>
        <mxCell id="_eOqXtn0xgRWh_iTf6pw-70" style="edgeStyle=orthogonalEdgeStyle;rounded=0;orthogonalLoop=1;jettySize=auto;html=1;exitX=1;exitY=0;exitDx=0;exitDy=0;entryX=1;entryY=0;entryDx=0;entryDy=0;" edge="1" parent="1" target="_eOqXtn0xgRWh_iTf6pw-64">
          <mxGeometry relative="1" as="geometry">
            <mxPoint x="630" y="270" as="sourcePoint" />
            <Array as="points">
              <mxPoint x="630" y="364" />
            </Array>
          </mxGeometry>
        </mxCell>
        <mxCell id="_eOqXtn0xgRWh_iTf6pw-76" style="edgeStyle=orthogonalEdgeStyle;rounded=0;orthogonalLoop=1;jettySize=auto;html=1;exitX=0;exitY=0.5;exitDx=0;exitDy=0;entryX=1;entryY=0.5;entryDx=0;entryDy=0;" edge="1" parent="1" source="_eOqXtn0xgRWh_iTf6pw-64" target="_eOqXtn0xgRWh_iTf6pw-66">
          <mxGeometry relative="1" as="geometry" />
        </mxCell>
        <mxCell id="_eOqXtn0xgRWh_iTf6pw-64" value="" style="ellipse;whiteSpace=wrap;html=1;aspect=fixed;" vertex="1" parent="1">
          <mxGeometry x="540" y="360" width="30" height="30" as="geometry" />
        </mxCell>
        <mxCell id="_eOqXtn0xgRWh_iTf6pw-67" style="edgeStyle=orthogonalEdgeStyle;rounded=0;orthogonalLoop=1;jettySize=auto;html=1;exitX=1;exitY=0.5;exitDx=0;exitDy=0;entryX=1;entryY=0;entryDx=0;entryDy=0;" edge="1" parent="1" target="_eOqXtn0xgRWh_iTf6pw-65">
          <mxGeometry relative="1" as="geometry">
            <mxPoint x="610" y="270" as="sourcePoint" />
            <Array as="points">
              <mxPoint x="590" y="270" />
              <mxPoint x="590" y="314" />
            </Array>
          </mxGeometry>
        </mxCell>
        <mxCell id="_eOqXtn0xgRWh_iTf6pw-69" style="edgeStyle=orthogonalEdgeStyle;rounded=0;orthogonalLoop=1;jettySize=auto;html=1;exitX=1;exitY=1;exitDx=0;exitDy=0;entryX=1;entryY=1;entryDx=0;entryDy=0;" edge="1" parent="1" target="_eOqXtn0xgRWh_iTf6pw-65">
          <mxGeometry relative="1" as="geometry">
            <mxPoint x="610" y="430" as="sourcePoint" />
            <Array as="points">
              <mxPoint x="610" y="336" />
            </Array>
          </mxGeometry>
        </mxCell>
        <mxCell id="_eOqXtn0xgRWh_iTf6pw-75" style="edgeStyle=orthogonalEdgeStyle;rounded=0;orthogonalLoop=1;jettySize=auto;html=1;exitX=0;exitY=0.5;exitDx=0;exitDy=0;entryX=1;entryY=0.5;entryDx=0;entryDy=0;" edge="1" parent="1" source="_eOqXtn0xgRWh_iTf6pw-65" target="_eOqXtn0xgRWh_iTf6pw-63">
          <mxGeometry relative="1" as="geometry" />
        </mxCell>
        <mxCell id="_eOqXtn0xgRWh_iTf6pw-65" value="" style="ellipse;whiteSpace=wrap;html=1;aspect=fixed;" vertex="1" parent="1">
          <mxGeometry x="540" y="310" width="30" height="30" as="geometry" />
        </mxCell>
        <mxCell id="_eOqXtn0xgRWh_iTf6pw-78" style="edgeStyle=orthogonalEdgeStyle;rounded=0;orthogonalLoop=1;jettySize=auto;html=1;exitX=0;exitY=0.5;exitDx=0;exitDy=0;" edge="1" parent="1" source="_eOqXtn0xgRWh_iTf6pw-66">
          <mxGeometry relative="1" as="geometry">
            <mxPoint x="200" y="410" as="targetPoint" />
          </mxGeometry>
        </mxCell>
        <mxCell id="_eOqXtn0xgRWh_iTf6pw-66" value="$$b_s$$" style="rounded=1;whiteSpace=wrap;html=1;fontSize=14;" vertex="1" parent="1">
          <mxGeometry x="470" y="360" width="30" height="30" as="geometry" />
        </mxCell>
        <mxCell id="_eOqXtn0xgRWh_iTf6pw-71" value="-" style="text;strokeColor=none;align=center;fillColor=none;html=1;verticalAlign=middle;whiteSpace=wrap;rounded=0;" vertex="1" parent="1">
          <mxGeometry x="555" y="310" width="10" height="10" as="geometry" />
        </mxCell>
        <mxCell id="_eOqXtn0xgRWh_iTf6pw-72" value="-" style="text;strokeColor=none;align=center;fillColor=none;html=1;verticalAlign=middle;whiteSpace=wrap;rounded=0;" vertex="1" parent="1">
          <mxGeometry x="555" y="379" width="10" height="10" as="geometry" />
        </mxCell>
        <mxCell id="_eOqXtn0xgRWh_iTf6pw-73" value="+" style="text;strokeColor=none;align=center;fillColor=none;html=1;verticalAlign=middle;whiteSpace=wrap;rounded=0;" vertex="1" parent="1">
          <mxGeometry x="555" y="329" width="10" height="10" as="geometry" />
        </mxCell>
        <mxCell id="_eOqXtn0xgRWh_iTf6pw-74" value="+" style="text;strokeColor=none;align=center;fillColor=none;html=1;verticalAlign=middle;whiteSpace=wrap;rounded=0;" vertex="1" parent="1">
          <mxGeometry x="555" y="362" width="10" height="10" as="geometry" />
        </mxCell>
        <mxCell id="_eOqXtn0xgRWh_iTf6pw-79" value="+" style="text;strokeColor=none;align=center;fillColor=none;html=1;verticalAlign=middle;whiteSpace=wrap;rounded=0;" vertex="1" parent="1">
          <mxGeometry x="195" y="412" width="10" height="10" as="geometry" />
        </mxCell>
        <mxCell id="_eOqXtn0xgRWh_iTf6pw-80" value="+" style="text;strokeColor=none;align=center;fillColor=none;html=1;verticalAlign=middle;whiteSpace=wrap;rounded=0;" vertex="1" parent="1">
          <mxGeometry x="195" y="280" width="10" height="10" as="geometry" />
        </mxCell>
        <mxCell id="_eOqXtn0xgRWh_iTf6pw-84" value="&lt;font style=&quot;font-size: 14px;&quot;&gt;$$\dot\theta_s$$&lt;/font&gt;" style="edgeLabel;html=1;align=center;verticalAlign=middle;resizable=0;points=[];" vertex="1" connectable="0" parent="1">
          <mxGeometry x="514.1379310344828" y="123" as="geometry">
            <mxPoint x="-197" y="-14" as="offset" />
          </mxGeometry>
        </mxCell>
        <mxCell id="_eOqXtn0xgRWh_iTf6pw-86" value="-" style="text;strokeColor=none;align=center;fillColor=none;html=1;verticalAlign=middle;whiteSpace=wrap;rounded=0;" vertex="1" parent="1">
          <mxGeometry x="207" y="433" width="10" height="10" as="geometry" />
        </mxCell>
        <mxCell id="_eOqXtn0xgRWh_iTf6pw-87" value="$$\frac{K}{J_g}$$" style="rounded=1;whiteSpace=wrap;html=1;fontSize=14;" vertex="1" parent="1">
          <mxGeometry x="280" y="484" width="40" height="50" as="geometry" />
        </mxCell>
        <mxCell id="YrG0Ry34S1BnXAfEJ4qE-1" value="" style="rounded=1;whiteSpace=wrap;html=1;fontSize=14;" vertex="1" parent="1">
          <mxGeometry x="412.43" y="484" width="40" height="50" as="geometry" />
        </mxCell>
        <mxCell id="YrG0Ry34S1BnXAfEJ4qE-4" style="edgeStyle=orthogonalEdgeStyle;rounded=0;orthogonalLoop=1;jettySize=auto;html=1;exitX=0;exitY=0.5;exitDx=0;exitDy=0;entryX=1;entryY=0.5;entryDx=0;entryDy=0;" edge="1" parent="1" source="YrG0Ry34S1BnXAfEJ4qE-1" target="_eOqXtn0xgRWh_iTf6pw-87">
          <mxGeometry relative="1" as="geometry">
            <Array as="points">
              <mxPoint x="412" y="509" />
            </Array>
          </mxGeometry>
        </mxCell>
        <mxCell id="YrG0Ry34S1BnXAfEJ4qE-5" value="&lt;font style=&quot;font-size: 13px;&quot;&gt;$$\Omega_g^2$$&lt;/font&gt;" style="edgeLabel;html=1;align=center;verticalAlign=middle;resizable=0;points=[];" vertex="1" connectable="0" parent="YrG0Ry34S1BnXAfEJ4qE-4">
          <mxGeometry x="-0.0051" relative="1" as="geometry">
            <mxPoint as="offset" />
          </mxGeometry>
        </mxCell>
        <mxCell id="YrG0Ry34S1BnXAfEJ4qE-3" value="" style="endArrow=classic;html=1;rounded=0;" edge="1" parent="1">
          <mxGeometry width="50" height="50" relative="1" as="geometry">
            <mxPoint x="560" y="444" as="sourcePoint" />
            <mxPoint x="452.43" y="508" as="targetPoint" />
            <Array as="points">
              <mxPoint x="560" y="508" />
              <mxPoint x="506.43" y="508" />
            </Array>
          </mxGeometry>
        </mxCell>
        <mxCell id="YrG0Ry34S1BnXAfEJ4qE-10" value="&lt;font style=&quot;font-size: 7px;&quot;&gt;$$f(u) = u^2$$&lt;/font&gt;" style="text;html=1;align=center;verticalAlign=middle;resizable=0;points=[];autosize=1;strokeColor=none;fillColor=none;" vertex="1" parent="1">
          <mxGeometry x="400.93" y="478.99999999999994" width="63" height="26" as="geometry" />
        </mxCell>
        <mxCell id="oLnOALup7m9qXQZEppNv-8" value="" style="shape=image;verticalLabelPosition=bottom;labelBackgroundColor=default;verticalAlign=top;aspect=fixed;imageAspect=0;image=data:image/png,iVBORw0KGgoAAAANSUhEUgAAAZ8AAAFOCAYAAABZgBAeAAAgAElEQVR4Ae2dCZRUxfWHZWDYZBURRUJYBINCjguaCAZBREXZDBqikCgaFUVwAQFBcYGISkSGACqbIktAQEQRRZGoiJLjDqgYw2oAEZFFFoet/ufO3ybj2DPTVf1edb1XX53D6Z7u9+re+92ifl3v1as6SlEgAAEIQAAClgkcZdke5iAAAQhAAAIK8aERQAACEICAdQKIj3XkGIQABCAAAcSHNgABCEAAAtYJID7WkWMQAhCAAAQQH9oABCAAAQhYJ4D4WEeOQQhAAAIQQHxoAxCAAAQgYJ0A4mMdOQYhAAEIQADxoQ1AAAIQgIB1AoiPdeQYhAAEIAABxIc2AAEIQAAC1gkgPtaRYxACEIAABBAf2gAEIAABCFgngPhYR45BCEAAAhBAfGgDEIAABCBgnQDiYx05BiEAAQhAAPGhDUAAAhCAgHUCiI915BiEAAQgAAHEhzYAAQhAAALWCSA+1pFjEAIQgAAEEB/aAAQgAAEIWCeA+FhHjkEIQAACEEB8aAMQgAAEIGCdAOJjHTkGIQABCEAA8aENQAACEICAdQKIj3XkGIQABCAAAcSHNgABCEAAAtYJID7WkWMQAhCAAAQQH9oABCAAAQhYJ4D4WEeOQQhAAAIQQHxoAxCAAAQgYJ0A4mMdOQYhAAEIQADxoQ1AAAIQgIB1AoiPdeQYhAAEIAABxIc2AAEIQAAC1gkgPtaRYxACEIAABBAf2gAEIAABCFgngPhYR45BCEAAAhBAfGgDEIAABCBgnQDiYx05BiEAAQhAAPGhDUAAAhCAgHUCiI915BiEAAQgAAHEhzYAAQhAAALWCSA+1pFjEAIQiCuBNWvWqHfeeUctXLhQzZs3T82cOVNNnjxZjRs3To0aNUo98sgj6oEHHlADBw5Ud9xxh+rZs6e67rrrVNeuXVXnzp3VpZdeqlq3bq1atWql2rZtqy677DJ15ZVXqmuuuUb16NFD3XbbbWrAgAHq3nvvVcOGDVOPPfaYGjt2rJo0aZKaPn26eu6559RLL72kVq5c6TxixMf5FOEgBCCQSQLbt29Xn332mXr99dfV1KlT1d/+9jfVp08fddVVV6nzzz9fNWrUSFWpUkUdddRRzvz705/+lElkKdlGfFLCxEEQgECcCezcuVP985//VCNHjswbZTRr1kz98pe/dEZMdIXtlltucT5diI/zKcJBCEAgKAKHDx9W//73v9WsWbPU3Xffrdq3b69q164dWZEpTJTksp7rBfFxPUP4BwEIGBHYu3dv3v2Xxx9/PO9+yTnnnKMqVKgQO6FJJkAPP/ywETObJyE+NmljCwIQCI3Avn371Kuvvqr69++vmjZtqrKysrwQmmTi88QTT4TGOaiKEZ+gSFIPBCBglcDBgwfVu+++q4YOHZo3O6xMmTLeik1BAfrHP/5hNRcmxhAfE2qcAwEIZISATCHOyclRHTp0UJUrV0ZsCplhJ9OtXS+Ij+sZwj8IeEzgq6++ynuGRZ6DOeGEExCbQsSm4Mjn7bffdr7VID7OpwgHIeAXge+++y7vgUy5b1OwU+Xv1J4lWrFihfONBvFxPkU4CIH4E9i/f3/e0/mdOnVS2dnZiE6KI5zCxHjDhg3ONxrEx/kU4SAE4kvgX//6V94SM9WqVUNw0hSc/EIkD826XhAf1zOEfxCIGYHNmzfnrUsmy9Lk7zB5n9oltVQ4RaHJID5RyBI+QiAGBD788EP1xz/+0SvBkYdajz32WFWrVi3VoEED1aRJE3X22WerFi1aqAsvvFB17NhRdenS5cjCobfffru666671D333KP69u1b6MKjzZs3V2eeeaY65ZRTVL169VTNmjXVMccco8qXL6+qVq0aidaC+EQiTTgJgegSkGm/LVu2jI3olC5dOm/dN1n/7fLLL1e33nqrkhUFZNHRxYsXqy+++ELt2bMnugmz5DniYwk0ZiDgG4EJEyaohg0bRlJ05JKgCMvgwYPVk08+qebPn69k5LZlyxbf0hhavIhPaGipGAL+Efj+++/V8OHD1Yknnui86JQqVUr96le/yttHR0RG9t6RKcoy844SPgHEJ3zGWIBA7AnIJIJ+/fo5uepAyZIl80ZgsjGbrGQtS88sX74ckclwq0R8MpwAzEMgygRWrVqlunfvruQ+SCqzsGwdIzfi5V7Miy++qHbv3h1lxLH1HfGJbWoJDALhEdi6dWue6JQoUcIJ0alRo0beVtRPP/20klEYxX0CiI/7OcJDCDhD4MCBA3nbSFeqVCmjoiNTii+66KI8Xz755BNn+OBI6gQQn9RZcSQEvCawaNGivGdVbF06K2hHtkyQ5XdkYoDs3UOJNgHEJ9r5w3sIhE5g9erVql27dhkZ6ciGcK1bt1YybXvHjh2hx4oBewQQH3ussQSBSBGQG/WyK2gmJhPIKgAjR47kuZpItRg9ZxEfPV4cDYHYEzh8+LCaPHmy9f1z5MHOIUOGqDVr1sSeMQEqhfjQCiAAgSMEPv7447w1wwrebwnrb7msJruSvvnmm0d84I0fBBAfP/JMlBAokoDMYpMFLUUMwhKa/PWWK1dO9ejRQ8n9JIqfBBAfP/NO1BA4QmDt2rXWRjvyPM4DDzygZLdSit8EEB+/80/0nhOQacuy7H/+UUkY72XFgfHjx6vc3FzPiRN+ggDikyDBKwQ8IiALgHbr1i100Tn//POVbKlAgUBBAohPQSL8DYGYE3j//fdVnTp1QhOe7OzsPGGTxTspECiMAOJTGBk+h0DMCMgU6mHDhikRhzAurUmd8kAokwhi1nBCCgfxCQks1ULAJQKbNm1SrVq1Ck106tevn7eCtEsx44vbBBAft/ODdxBIm8CCBQvUMcccE4rwyJTpoUOHpu0jFfhHAPHxL+dE7BGBiRMnhvbszh/+8AclIyoKBEwIID4m1DgHAhEgMGjQoFBGO7L19Ntvvx0BArjoMgHEx+Xs4BsEDAgcOnQob2O1oCcVVKlSJW+xz4MHDxp4xSkQ+CkBxOenPPgLApEmIPvctG3bNvART4sWLdghNNItwz3nER/3coJHEDAisG3bNtW0adNAhUe2U3j00UeVTNOmQCBIAohPkDSpCwIZIrBu3Tol052DvNTWoEEDxYOiGUqoB2YRHw+STIjxJrBy5UpVvXr1QIXn5ptvZqvqeDebjEeH+GQ8BTgAAXMCb7zxhqpYsWJgwlOtWjX18ssvmzvEmRBIkQDikyIoDoOAawSeffbZQJfKkaVxtmzZ4lqY+BNTAohPTBNLWPEmMHbs2MBGO2XLllWjRo2KNzCic44A4uNcSnAIAkUTGD16dGDCU7lyZfXee+8VbZBvIRACAcQnBKhUCYGwCMybN0+VKFEiEPGpVauWWrVqVViuUi8EiiSA+BSJhy8h4A6BJUuWKHnuJojp1KeeeioPjbqTWi89QXy8TDtBR43AihUrApvVds4556hdu3ZFDQH+xowA4hOzhBJO/Ahs3LhR1ahRI5ART8eOHdUPP/wQP0hEFDkCiE/kUobDPhHYvn27OvnkkwMRnmuvvZZlcnxqPI7Hivg4niDc85dAbm6uOvvsswMRngceeMBfkETuJAHEx8m04JTvBGRbhA4dOqQtPFlZWWrq1Km+4yR+BwkgPg4mBZcgcN1116UtPPLwqGyhTYGAiwQQHxezgk9eE/jrX/+atvCUKlVKvf76615zJHi3CSA+bucH7zwjMGXKlLSFR54DknXfKBBwmQDi43J28M0rAh999JGSEUu6D5E+8sgjXnEj2GgSQHyimTe8jhmBPXv2qDp16qQtPD179owZGcKJKwHEJ66ZJa5IEfjzn/+ctvBcccUVPMcTqaz77Szi43f+id4BAs8991zawnPuueeqAwcOOBANLkAgNQKIT2qcOAoCoRBYu3Zt2mu2NW7cmLXaQskOlYZJAPEJky51Q6AIAjJSOe2009Ia9dSuXVt9/fXXRVjhKwi4SQDxcTMveOUBgQEDBqQlPNWqVVP/+c9/PCBFiHEkgPjEMavE5DwB2ZsnnU3hZPWCDz/80Pk4cRAChRFAfAojw+cQCImArFR9/PHHG496SpYsqV5++eWQvKNaCNghgPjY4YwVCBwhcMkllxgLjzyAOmzYsCN18QYCUSWA+EQ1c/gdSQI5OTlpCU+LFi14lieSmcfpggQQn4JE+BsCIRFYuXKlKl26tLH4VK1aVW3evDkk76gWAnYJID52eWPNUwL79u1TDRo0MBYeudw2f/58T+kRdhwJID5xzCoxOUegf//+aQmPbIFNgUCcCCA+ccomsThJYPXq1So7O9tYfOrWrat2797tZGw4BQFTAoiPKTnOg0CKBNq3b28sPLLFAs/zpAiawyJFAPGJVLpwNmoEFi1aZCw8cp/nwQcfjFrI+AuBlAggPilh4iAI6BM4ePCgqlevnrH4MK1anzlnRIcA4hOdXOFpxAiMGDHCWHgqVqzItOqI5Rt39QggPnq8OBoCKRHYunVrWlslzJ49OyU7HASBqBJAfKKaOfx2msBf/vIX41FPp06dnI4N5yAQBAHEJwiK1AGBfAQ++eQT4xWrZUr2hg0b8tXGWwjEkwDiE8+8ElUGCZx11lnGo56BAwdm0HNMQ8AeAcTHHmsseUBg2rRpxsJzwgknqD179nhAiRAhoBTiQyuAQEAERDhEQOT5HJN/U6dODcgTqoGA+wQQH/dzhIcRITBo0CAj0RGhkkt1FAj4RADx8SnbxBoaAZkkUKZMGSPxke20ZZICBQI+EfBSfL7//ns1Y8YMdeONN/qUa2INkUD37t2NhEdGPddff32InlE1BNwk4I34yEN/EydOVO3atfvJL9Rly5a5mRm8igyBjRs3KlkA1OQ+j6xkIG2TAgHfCMRafNavX69GjhypzjvvPFWyZMmknUPfvn19yznxBkygT58+SdtWKmIkS/BQIOAjgdiJj2xVPGTIEHXGGWek1CHUrl3bx7wTc0AEdu3apcqVK5dSWysoRrLoqCw+SoGAjwRiJT6m193ff/99H3NPzAEQkC0PCopKqn+//vrrAXhAFRCIJoFYic+4ceOMOoJ+/fpFM3t4nVECubm5qnr16kZtTjaYo0DAZwKxEp9t27YVem+nqF+jXHrz+b+AeeyPP/64kfBIW1yxYoW5Yc6EQAwIxEp8JB+tW7c26hDYqjgGrdliCIcOHVJ16tQxamuXXnqpRU8xBQE3CcROfEx/jd51111uZgivnCQwc+ZMI+GRUc9bb73lZEw4BQGbBGInPnLpTZ4YL+oyW7LvuPRms9lF31bjxo2125i0u6ZNm0Y/eCKAQAAEYic+wqRly5ZGHcPHH38cAFKqiDuBRYsWGbUvEZ958+bFHQ/xQSAlArEUn9GjRxt1DnfffXdK0DjIbwJt2rQxal8NGzZUhw8f9hse0UPgRwKxFJ/NmzcbXXpr0KABDQMCRRKQWWrJLtum8tnTTz9dZN18CQGfCMRSfCSBv/vd74w6CabA+tT89WPt0qWLUbuqWbOmOnDggL5BzoBATAnEVnxycnKMOol77703pqkmrHQJrF27VmVlZRm1q8ceeyxd85wPgVgRiK34mF56k/W2KBBIRkBWwkjl8lrBY6pWrar27t2brEo+g4C3BGIrPpLRZs2aGXUWS5cu9bZBEHhyAjJRwHQpncGDByevlE8h4DGBWIuPLFdf8FdoKn/fcMMNHjcJQk9GYOHChUZtSVa8/u6775JVyWcQ8JpArMVHLr2lIjYFj6lQoYLat2+f1w2D4H9KoGvXrkZtqVevXj+tiL8gAIE8ArEWH4nw3HPPNeo0pk+fThOBQB6B3bt3q7Jly2q3I9ndVHY5pUAAAj8nEHvxGT9+vHanISOhiy666Oe0+MRLAk899ZRRG+rWrZuXvAgaAqkQiL34fP/990a/WmV9uK+++ioVhhwTcwKtWrUyEp933nkn5mQIDwLmBGIvPoLmyiuvNOo8hg0bZk6WM2NBQC6bmSxUW7du3VjETxAQCIuAF+LzyiuvGInPKaecEhZ36o0IgaFDhxq1nfvuuy8iEeImBDJDwAvxkWc0jjvuOKNOZNmyZZnJDFadICAjmIKzIVP5e82aNU74jxMQcJWAF+Ij8E2fTr/ppptczR1+hUxAfnikIjQFjznnnHNC9ozqIRB9At6Iz6effmrUkcjSKPv3749+polAm4D88CgoLKn8PXbsWG1bnAAB3wh4Iz6SWNlFMpXOo+AxsmUyxS8C8oOjSpUq2u0lOztbbd++3S9YRAsBAwJeic/f//537c5EhOiSSy4xQMspUSYwZ84co7bSqVOnKIeN7xCwRsAr8ZE1tuSXacGRTXF/lyxZUm3ZssVaUjCUeQIdO3bUbifSjmbPnp155/EAAhEg4JX4SD4uu+wyo07lwQcfjEA6cTEIAnLZzORHilym4/5gEBmgDh8IeCc+zz//vJH41K5dW8mUbUr8CUycONGojbAaevzbBhEGR8A78Tl48KCSGWzFXWpL9v38+fODI09NzhLo3LmzUftYsmSJszHhGARcI+Cd+EgCevfubdS5tGvXzrX84U/ABOTHSfny5bXbR82aNQP2hOogEG8CXorPBx98oN25yEhI1vhav359vFuE59G98cYbRm3j7rvv9pwc4UNAj4CX4iOITj31VKNOZuDAgXqEOTpSBPr372/ULlhOJ1JpxlkHCHgrPuPGjTPqZKpVq6YOHDjgQOpwIQwCTZo00W4XjRs3DsMV6oRArAl4Kz579uxRlSpV0u5o5PLbjBkzYt0ofA1Otk9INtGkuM/69u3rKzLihoAxAW/FR4j16tXLqLNp2bKlMXBOdJeA6Wh40aJF7gaFZxBwlIDX4vPll18aiY/8EpZzKfEiYPIAssyMkxlyFAhAQI+A1+IjqM477zwjAZLp2pT4EDCdYt2+ffv4QCASCFgk4L34yP2b4q7pJ/te7hf98MMPFlOFqTAJLF682KgdjBkzJky3qBsCsSXgvfjIzDWZwZZMYIr7bMKECbFtGL4FJpMGist3su9lkgIFAhDQJ+C9+AiyQYMGGXU8Z555pj5xznCSgMlzXw0aNHAyFpyCQBQIID5K5a1akJWVZSRA7733XhTyjI9FEDCdYs19vyKg8hUEiiGA+PwISG4cJ7usUtxn1157bTGI+dp1Ak888YRR7hcsWOB6aPgHAWcJID4/pkY6kuKEJtn3ZcqUUdu2bXM2wThWPIEOHTpo57506dIqNze3+Mo5AgIQSEoA8fkRi+zVI3v2JBOY4j4bMmRIUrh86D4B0ynWF154ofvB4SEEHCaA+ORLzsMPP2wkPjVq1GC9t3wco/T2tddeM8r5Y489FqUw8RUCzhFAfPKl5Ntvv1WlSpUy6oyeeuqpfDXxNioETGc6fv7551EJET8h4CQBxKdAWrp27WokPo0aNSpQE39GgUCbNm20883GcVHILD66TgDxKZChjz76SLszStwTkks4lGgRMFnZ/MYbb4xWkHgLAQcJID5JktKsWTMjAWrbtm2S2vjIVQKrVq0yyvPzzz/vakj4BYHIEEB8kqRq1qxZRp2SbLP92WefJamRj1wk8MwzzxjleefOnS6Gg08QiBQBxCdJug4dOqRq1apl1DFdf/31SWrkIxcJ9OzZUzvHLKnjYibxKYoEEJ9CsjZixAjtjknu/fDQaSFAHfz4rLPO0s6xTEihQAAC6RNAfAphuGvXLlWxYkXtzkkE6P777y+kVj52hcD+/ftVdna2dn5zcnJcCQE/IBBpAohPEem7/fbbtTsnER956JS9fooA68BXy5YtM8rtu+++64D3uACB6BNAfIrI4VdffaVMV7ueOHFiETXzVaYJyAgmMUU+1VdpCzJiokAAAukTQHyKYXj55Zdrd1LSmfHQaTFgM/y1ycPEZ5xxRoa9xjwE4kMA8Skml0uXLjUSHxGghQsXFlM7X2eKgMxaS3XEkziuR48emXIXuxCIHQHEJ4WUnnbaadodlXRYF110UQq1c4htAvKcTkJQdF4nTZpk21XsQSC2BBCfFFI7Y8YMo85KOjYeOk0BsOVDXnnlFaN8rly50rKnmINAfAkgPinkNp2HTq+++uoULHCITQIyFV5nxCPHlitXTkk7oEAAAsEQQHxS5Dh8+HDtDks6LdmiYePGjSla4TAbBC699FLtXLZs2dKGa9iAgDcEEJ8UUy0PnZYvX1670xIBuuWWW1K0wmE2CBx77LHaeezXr58N17ABAW8IID4aqe7du7d2pyXiU7p0afXNN99oWOLQsAisWbPGKIezZ88OyyXqhYCXBBAfjbSvXr3a+KHTAQMGaFji0LAImE4e2bBhQ1guUS8EvCSA+Gim/YorrjD65SzrxG3fvl3TGocHTeDOO+/Uzp8sl0SBAASCJYD4aPJcsWKFducll97k39ChQzWtcXjQBFq3bq2dvw4dOgTtBvVBwHsCiI9BE5AdSxOCovMqN7r37t1rYJFTgiJQtWpV7dwNGTIkKPPUAwEI/EgA8TFoCm+99ZZ2B5YQqZEjRxpY5JQgCKxbt84oby+++GIQ5qkDAhDIRwDxyQdD523z5s2NOrKaNWuqAwcO6Jji2IAIzJ071yhnPKcVUAKoBgL5CCA++WDovF2wYIFRRyYjoAkTJuiY4tiACNxzzz3aOatcuXJA1qkGAhDITwDxyU9D833jxo21OzMRnzp16rBUiybrIA5v166ddr4uvvjiIExTBwQgUIAA4lMAiM6fM2fO1O7MEvd+5FyKXQInnniidr4GDhxo10msQcATAohPGomWhSYbNmyo3aGJAMmoiWKPwI4dO4zyNGvWLHtOYgkCHhFAfNJMtmyXnRjN6L6+9NJLaVrn9FQJmG6jIKtaUCAAgeAJID5pMpWZazKDTVd45HiZMUexQ2DYsGHaOZJtFCgQgEA4BBCfALjm5ORod2wJsXrzzTcD8IAqiiNgsiwS2ygUR5XvIWBOAPExZ3fkTFm1wOTJeRGgCy644Eg9vAmPwEknnaT9A+GOO+4IzyFqhoDnBBCfgBqArNuWGM3ovr777rsBeUE1yQjIjwPdnMjxU6ZMSVYdn0EAAgEQQHwCgChVyGZzsnK1SSfXqlWrgLygmmQE5NKmSV4+/fTTZNXxGQQgEAABxCcAiIkqZM8ek05OzmH0k6AY/Kusp6ebl+zsbB4EDj4V1AiBIwQQnyMo0n8ju5XKrqW6HZ0cz83t9PkXVsPVV1+tnZPf/va3hVXH5xCAQAAEEJ8AIOavomfPntodXUKsFi9enL8q3gdEoEmTJto5ufnmmwOyTjUQgEAyAohPMippfLZp0ybj0Q+/ttMAX8ip+/btM9r6fPz48YXUyMcQgEAQBBCfICgWqEN+NSdGM7qvixYtKlAbf6ZD4I033jDKxQcffJCOWc6FAASKIYD4FAPI5GtGPybUwjnHZGWDrKwstX///nAcolYIQCCPAOITUkO45ZZbjH5xy0jp1VdfDckr/6rt0KGDdh6aNm3qHygihoBlAohPSMAZ/YQEVrPaatWqaYtP7969Na1wOAQgoEsA8dElpnG8dGK693wSx8sqzJT0CMiK1AmeOq8zZsxIzzBnQwACxRJAfIpFZH6AjH5kZWSdji9x7Omnn25umDPzCEydOtWI/fr16yEIAQiETADxCRnwbbfdZtQBiggtWLAgZO/iXb3JM1eyPQYFAhAInwDiEzLjrVu3MvoJmXFh1Z955pnawi9bL1AgAIHwCSA+4TNWsjR/4nKa7uv8+fMteBg/E6YPl44YMSJ+MIgIAg4SQHwsJIXRjwXIBUyYrmS9bNmyAjXxJwQgEAYBxCcMqknqvPPOO41HP/PmzUtSIx8VReChhx7S5l2qVCkl26JTIACB8AkgPuEzzrPA6McS6B/NdOrUSVt8mjdvbtdJrEHAYwKIj8Xk9+/fX7tDTNwjmj17tkVPo2/K5OFSGZ1SIAABOwQQHzuc86zI6KdChQpGAnTyySezuVmKuVqzZo0R47lz56ZogcMgAIF0CSA+6RLUPP+uu+4y6hhlBDRhwgRNa34ePn36dCPG3377rZ/AiBoCGSCA+FiGvn37duPRT40aNZRMIaYUTaBHjx7a4lOvXr2iK+VbCEAgUAKIT6A4U6ts0KBB2p1j4t7P8OHDUzPi8VFyiTLBK9XXbt26eUyM0CFgnwDiY5+5Smf0U7lyZbVjx44MeB0Nk1u2bNEWHhGoMWPGRCNAvIRATAggPhlK5P3332/USUpHKSMnSnICU6ZMMeL60UcfJa+QTyEAgVAIID6hYC2+0t27d6tjjjnGqKMsW7as+vrrr4s34uER3bt312ZapUoVdfjwYQ9pETIEMkcA8ckce5WTk6PdUSbuYciKzZSfE6hdu7Y209///vc/r4hPIACBUAkgPqHiLbry/fv3q1q1aml3liJAJUuWVPI8C+V/BEyf7xk7duz/KuEdBCBghQDiYwVz4UYmT55sJD4iQF27di28Yg+/keegEiNDndcvvvjCQ1qEDIHMEkB8Mss/b9UCk6nBic51+fLlGY7AHfNXXXWVtvgcd9xx7gSAJxDwiADi40CyX3jhBe1OMyE+l1xyiQMRuOGCCEmCS6qvMkGBAgEI2CeA+NhnntRi06ZNtTvORAe7ZMmSpHX69OFnn31mxG/atGk+YSJWCDhDAPFxJBWvvvqqUecpAtSxY0dHosicG+PGjTPit2LFisw5jWUIeEwA8XEo+a1btzbqQEWAfB/9yHTpxEgw1dfq1as7lH1cgYBfBBAfh/ItkwdS7TgLHieX7XwtBw8eVOXLl9dmx/0eX1sMcbtAAPFxIQv5fOjSpYt2J5oQojlz5uSryZ+3b731lhGzGTNm+AOJSCHgGAHEx7GEyIOS8gBpQlB0XmXKtowCfCsmeySVKFGCBVp9ayjE6xQBxMepdPy/M7J0jo7o5D/28ccfdzCicF06/fTTtXmdffbZ4TpF7RCAQJEEEIwZLqkAAAowSURBVJ8i8WTmS1k09Oijj9buUEWEZMM5WbTUlyJbk+cX31Tf33PPPb4gIk4IOEkA8XEyLUoNHjzYqFOVzve+++5zNKrg3TJdnujtt98O3hlqhAAEUiaA+KSMyu6B6Wy5IKMmX7ZcuPzyy7VFWviwhYLd9ow1CBQkgPgUJOLQ3+lsuXDTTTc5FEk4ruTm5qpy5cppi4/MKKRAAAKZJYD4ZJZ/kdZly4W6detqd65y6c2HLRdM18SbPn16kdz5EgIQCJ8A4hM+47QsyNpjqd5EL3hc3DdJu+aaa7TZiCjv3LkzrZxwMgQgkD4BxCd9hqHX0KRJE+1ONiFES5cuDd2/TBiQ55lMtiFv06ZNJtzFJgQgUIAA4lMAiIt/vvLKK8bic8YZZ7gYUto+LV682IjJmDFj0rZNBRCAQPoEEJ/0GVqp4dxzzzXqbGUENHPmTCs+2jTSq1cvIx6bNm2y6Sa2IACBQgggPoWAce3jDz74wKizFfGpU6eOkskLcSkyTdpk4zifF1+NS+6JIz4EEJ8I5bJbt27GAvToo49GKNKiXX3ttdeMOAwdOrToivkWAhCwRgDxsYY6fUP//e9/VdmyZY063kqVKsVmlpfJLDcZAa5cuTL9JFADBCAQCAHEJxCM9ioZMGCAkfhI53v77bfbczQkS/v27VMVKlTQZiCXHikQgIA7BBAfd3KRkifyjIrJFGMRn+zsbLV27dqU7Lh60LPPPqstPBK7bLtAgQAE3CGA+LiTi5Q9GT16tFEHLJ3wFVdckbIdFw/s2LGjUeyff/65i+HgEwS8JYD4RDD18oBlw4YNjTphESCZORfF8t133+WN3iQGnX9xfdYpijnEZwgkCCA+CRIRe33++ee1OuD8nXWzZs0iFu3/u/vEE08YxTxixIhIxovTEIgzAcQnwtkVEckvKjrv5d5J1IrsPqoToxyblZWlvvnmm6iFir8QiD0BxCfCKX7//fe1O+NE512vXr1IRf7hhx8axXrxxRdHKk6chYAvBBCfiGf6qquuMuqURYSitOPptddeaxTnlClTIp5h3IdAPAkgPhHPqzx4KlOoEyMandcyZcqo1atXO09AppeLrzqxybHyQK48F0SBAATcI4D4uJcTbY/69eun3TEnOvJWrVpp27N9gkwYSPir8yqjJQoEIOAmAcTHzbxoeZXOg6fSmc+aNUvLns2DZRHR+vXrG4mP3CeiQAACbhJAfNzMi7ZXo0aNMuqgRXyOP/54tXfvXm2bNk6YN2+eUVwyM44CAQi4SwDxcTc3Wp7Jg6eyfpnOZan8x95xxx1a9mwdLA+I5vcz1fdPP/20LRexAwEIGBBAfAyguXrKyy+/bNRRJzr05cuXOxXaokWLjOKRte+YaOBUKnEGAj8jgPj8DEm0P5C12xJiovvq2mZrLVu2NIqlT58+0U4i3kPAAwKIT8ySvHnzZlWxYkWjTlvEypVN55YuXWoUQ4kSJdSGDRtillXCgUD8CCA+8cupSmfyQalSpZQLs8R+85vfGInPhRdeGMOMEhIE4kcA8YlfTpVMT5ZLaLqX3RLH161bV+3evTtjZJ577jlj3xcuXJgxvzEMAQikTgDxSZ1VpI6UyQNyCSohKLqvsmxPJsr+/ftV7dq1jfw+/fTTM+EyNiEAAQMCiI8BtKic0qtXL6NOPCFUmZiuPHz4cGOfX3jhhaikBj8h4D0BxCfGTWDXrl15D5AmxET39eijj1ZffPGFNUKyWZzpZIlTTjnFmp8YggAE0ieA+KTP0OkaZN8eXdHJf3zjxo1Vbm6ulRjTmSbu8hJBVuBhBAIRI4D4RCxhJu62bds2LQHq3LmzOnTokInplM+ZNm2asY8nnXRS3iSLlI1xIAQgkHECiE/GUxC+A19//bWqVq2acecuI6FrrrkmNEc3bdqkKlWqZOzf3LlzQ/ONiiEAgXAIID7hcHWu1sWLF6c1+00E6NZbbw08LpkWft555xkLT4sWLQL3iQohAIHwCSA+4TN2xsKgQYOMO/nEfaD7778/0Hj69u1r7FPJkiXVp59+Gqg/VAYBCNghgPjY4eyEFblv07x5c+POPiFAI0eODCSe0aNHp+XLzTffHIgfVAIBCNgngPjYZ55Ri0Hc/xER6t27t/rhhx+MY5FZeOk8BCtTsmVqNgUCEIgmAcQnmnlLy+sg7v+IAJ166qlq1apVWr7I6Gvo0KFK1pBLjKRMXnNycrTscjAEIOAWAcTHrXxY82bw4MFpdf4JwShXrpx68sknU/JbVtxu1qxZ2nZl0dGwp36nFBAHQQACxgQQH2N00T/x/PPPT1sIEiLUpk0bVdSinnPmzFFVqlRJ21758uXVunXrog+fCCDgOQHEx+MGsG3bNvXrX/86bUFICJC8NmzYUMlKBXfeeafq0aNH3jTq6tWrB2bjmWee8ThjhA6B+BBAfOKTS6NIRIAaNWoUmDjkF6Kg38tKCxQIQCAeBBCfeOQxrSi++eYb1aBBA6cF6Be/+IWShVIpEIBAPAggPvHIY9pRyBI3solc0KOVIOqTadUrVqxIO0YqgAAE3CGA+LiTi4x7smHDBiUjjCAEI6g6SpcurZYsWZJxNjgAAQgESwDxCZZn5Gtbs2aNOuGEE5wQoKysLDVv3rzIMyUACEDg5wQQn58z8f4T2UDu2GOPzbgATZgwwftcAAACcSWA+MQ1s2nGtXHjRnXBBRdkRIBke4XXXnstzQg4HQIQcJkA4uNydhzwbdKkSapy5crWRKhOnTrqyy+/dCByXIAABMIkgPiESTcmddsaBcnSOywWGpNGQxgQKIYA4lMMIL7+HwEZBR133HGBj4Lk/tLYsWP/Z4h3EIBA7AkgPrFPcbAB5ubmqunTpweyL5BMo+7Tpw8PjwabImqDQCQIID6RSJObTi5fvlzdcMMN6uijj9YaDcmq1KNGjVJbt251MzC8ggAEQieA+ISO2A8Dn3zyiZo2bZqSrbrbt2+v6tWrp8qWLavq16+vWrdurbp3764eeughJc8RUSAAAQggPrQBCEAAAhCwTgDxsY4cgxCAAAQggPjQBiAAAQhAwDoBxMc6cgxCAAIQgADiQxuAAAQgAAHrBBAf68gxCAEIQAACiA9tAAIQgAAErBNAfKwjxyAEIAABCCA+tAEIQAACELBOAPGxjhyDEIAABCCA+NAGIAABCEDAOgHExzpyDEIAAhCAAOJDG4AABCAAAesEEB/ryDEIAQhAAAKID20AAhCAAASsE0B8rCPHIAQgAAEIID60AQhAAAIQsE4A8bGOHIMQgAAEIID40AYgAAEIQMA6AcTHOnIMQgACEIAA4kMbgAAEIAAB6wQQH+vIMQgBCEAAAogPbQACEIAABKwTQHysI8cgBCAAAQggPrQBCEAAAhCwTgDxsY4cgxCAAAQggPjQBiAAAQhAwDoBxMc6cgxCAAIQgADiQxuAAAQgAAHrBBAf68gxCAEIQAACiA9tAAIQgAAErBP4P2i1cGl9s2dfAAAAAElFTkSuQmCC;" vertex="1" parent="1">
          <mxGeometry x="415.98" y="502" width="32.91" height="26.49" as="geometry" />
        </mxCell>
      </root>
    </mxGraphModel>
  </diagram>
</mxfile>
